<?xml version="1.0" encoding="UTF-8"?>
<svg width="1200pt" height="1200pt" version="1.1" viewBox="0 0 1200 1200" xmlns="http://www.w3.org/2000/svg">
 <path d="m1037.5 124.97c33.141 0 64.922 13.172 88.359 36.609s36.609 55.219 36.609 88.359v0.09375c0 33.141-13.172 64.922-36.609 88.359s-55.219 36.609-88.359 36.609h-875.11c-33.141 0-64.922-13.172-88.359-36.609s-36.609-55.219-36.609-88.359v-0.09375c0-33.094 13.172-64.922 36.609-88.359s55.219-36.609 88.359-36.609zm0 75h-875.11c-13.219 0-25.969 5.2969-35.344 14.625-9.375 9.375-14.625 22.078-14.625 35.344v0.09375c0 13.219 5.25 25.969 14.625 35.344s22.078 14.625 35.344 14.625h875.11c13.219 0 25.969-5.25 35.344-14.625s14.625-22.078 14.625-35.344v-0.09375c0-13.219-5.25-25.969-14.625-35.344-9.375-9.3281-22.078-14.625-35.344-14.625z" fill-rule="evenodd"/>
 <path d="m1037.5 475.03c33.141 0 64.922 13.172 88.359 36.609 23.438 23.391 36.609 55.219 36.609 88.359v0.09375c0 33.141-13.172 64.969-36.609 88.359-23.438 23.438-55.219 36.609-88.359 36.609h-875.11c-33.141 0-64.922-13.172-88.359-36.609-23.438-23.391-36.609-55.219-36.609-88.359v-0.09375c0-33.141 13.172-64.969 36.609-88.359 23.438-23.438 55.219-36.609 88.359-36.609zm0 75h-875.11c-13.219 0-25.969 5.25-35.344 14.625s-14.625 22.031-14.625 35.344v0.09375c0 13.266 5.25 25.969 14.625 35.344s22.078 14.625 35.344 14.625h875.11c13.219 0 25.969-5.25 35.344-14.625s14.625-22.031 14.625-35.344v-0.09375c0-13.266-5.25-25.969-14.625-35.344s-22.078-14.625-35.344-14.625z" fill-rule="evenodd"/>
 <path d="m1037.5 825c33.141 0 64.922 13.172 88.359 36.609s36.609 55.219 36.609 88.359v0.09375c0 33.094-13.172 64.922-36.609 88.359s-55.219 36.609-88.359 36.609h-875.11c-33.141 0-64.922-13.172-88.359-36.609s-36.609-55.219-36.609-88.359v-0.09375c0-33.141 13.172-64.922 36.609-88.359s55.219-36.609 88.359-36.609zm0 75h-875.11c-13.219 0-25.969 5.25-35.344 14.625s-14.625 22.078-14.625 35.344v0.09375c0 13.219 5.25 25.969 14.625 35.344 9.375 9.3281 22.078 14.625 35.344 14.625h875.11c13.219 0 25.969-5.2969 35.344-14.625 9.375-9.375 14.625-22.078 14.625-35.344v-0.09375c0-13.219-5.25-25.969-14.625-35.344s-22.078-14.625-35.344-14.625z" fill-rule="evenodd"/>
</svg>
