<?xml version="1.0" encoding="UTF-8"?>
<svg width="1200pt" height="1200pt" version="1.1" viewBox="0 0 1200 1200" xmlns="http://www.w3.org/2000/svg">
 <path d="m173.96 199.16c-13.281 0.17969-25.941 5.6328-35.191 15.16-9.25 9.5273-14.332 22.34-14.125 35.621v700.2c-0.19141 13.383 4.9922 26.281 14.391 35.812 9.3984 9.5312 22.223 14.898 35.609 14.898 13.383 0 26.211-5.3672 35.605-14.898 9.3984-9.5312 14.582-22.43 14.395-35.812v-700.2c0.21094-13.516-5.0586-26.543-14.609-36.109-9.5469-9.5664-22.562-14.859-36.074-14.672zm449.71 50.391c-12.992 0.38672-25.32 5.8125-34.375 15.137l-300 300c-9.375 9.375-14.641 22.09-14.641 35.352 0 13.258 5.2656 25.973 14.641 35.352l300 300c9.3047 9.6914 22.121 15.227 35.559 15.363 13.438 0.13672 26.363-5.1406 35.863-14.645 9.5039-9.5 14.781-22.426 14.645-35.863s-5.6719-26.254-15.363-35.559l-214.65-214.65h579.3c13.383 0.1875 26.281-4.9961 35.812-14.395 9.5312-9.3984 14.898-22.223 14.898-35.605 0-13.387-5.3672-26.211-14.898-35.609-9.5312-9.3984-22.43-14.582-35.812-14.391h-579.3l214.65-214.65c9.6875-9.4219 15.156-22.363 15.148-35.879-0.003907-13.512-5.4805-26.449-15.176-35.863-9.6992-9.4102-22.793-14.5-36.301-14.098z" fill-rule="evenodd"/>
</svg>
