<svg width="68" height="69" viewBox="0 0 68 69" fill="none" xmlns="http://www.w3.org/2000/svg">
<path fill-rule="evenodd" clip-rule="evenodd" d="M9.85772 11.5634C9.10513 11.5736 8.38773 11.8826 7.86357 12.4224C7.3394 12.9623 7.05142 13.6884 7.06315 14.441V54.119C7.0523 54.8773 7.34604 55.6082 7.87864 56.1483C8.41122 56.6884 9.13794 56.9925 9.89648 56.9925C10.6549 56.9925 11.3818 56.6884 11.9141 56.1483C12.4467 55.6082 12.7404 54.8773 12.7298 54.119V14.441C12.7418 13.6751 12.4432 12.9369 11.902 12.3948C11.361 11.8527 10.6234 11.5528 9.85772 11.5634ZM35.3413 14.4189C34.6051 14.4408 33.9065 14.7482 33.3934 15.2766L16.3934 32.2766C15.8621 32.8079 15.5637 33.5284 15.5637 34.2799C15.5637 35.0312 15.8621 35.7517 16.3934 36.2832L33.3934 53.2832C33.9206 53.8324 34.6469 54.1461 35.4084 54.1538C36.1699 54.1615 36.9023 53.8625 37.4406 53.3239C37.9792 52.7855 38.2782 52.0531 38.2705 51.2916C38.2628 50.5302 37.9491 49.8039 37.3999 49.2766L25.2364 37.1131H58.0634C58.8218 37.1238 59.5527 36.83 60.0928 36.2974C60.6329 35.7648 60.937 35.0381 60.937 34.2798C60.937 33.5212 60.6329 32.7945 60.0928 32.262C59.5527 31.7294 58.8218 31.4356 58.0634 31.4465H25.2364L37.3999 19.283C37.9489 18.7491 38.2588 18.0157 38.2583 17.2498C38.2581 16.4841 37.9478 15.751 37.3983 15.2176C36.8487 14.6843 36.1067 14.3959 35.3413 14.4187V14.4189Z" fill="#EDE5CC"/>
</svg>
