<svg width="190" height="190" viewBox="0 0 190 190" fill="none" xmlns="http://www.w3.org/2000/svg">
<path fill-rule="evenodd" clip-rule="evenodd" d="M164.271 19.7869C169.518 19.7869 174.55 21.8725 178.261 25.5834C181.972 29.2942 184.057 34.3264 184.057 39.5735V39.5884C184.057 44.8357 181.972 49.8677 178.261 53.5785C174.55 57.2894 169.518 59.375 164.271 59.375H25.7118C20.4644 59.375 15.4325 57.2894 11.7216 53.5785C8.01074 49.8677 5.92517 44.8355 5.92517 39.5884V39.5735C5.92517 34.3336 8.01074 29.2942 11.7216 25.5834C15.4325 21.8725 20.4646 19.7869 25.7118 19.7869H164.271ZM164.271 31.6619H25.7118C23.6188 31.6619 21.6 32.5006 20.1156 33.9776C18.6313 35.4619 17.8 37.4732 17.8 39.5737V39.5885C17.8 41.6815 18.6313 43.7003 20.1156 45.1847C21.6 46.669 23.6113 47.5003 25.7118 47.5003H164.271C166.364 47.5003 168.383 46.669 169.867 45.1847C171.351 43.7003 172.183 41.689 172.183 39.5885V39.5737C172.183 37.4807 171.351 35.4619 169.867 33.9776C168.383 32.5006 166.371 31.6619 164.271 31.6619Z" fill="#EDE5CC"/>
<path fill-rule="evenodd" clip-rule="evenodd" d="M164.271 75.2131C169.518 75.2131 174.55 77.2986 178.261 81.0095C181.972 84.7131 184.057 89.7525 184.057 94.9997V95.0145C184.057 100.262 181.972 105.301 178.261 109.005C174.55 112.716 169.518 114.801 164.271 114.801H25.7118C20.4644 114.801 15.4325 112.716 11.7216 109.005C8.01058 105.301 5.92517 100.262 5.92517 95.0145V94.9997C5.92517 89.7523 8.01074 84.7129 11.7216 81.0095C15.4326 77.2985 20.4646 75.2131 25.7118 75.2131H164.271ZM164.271 87.0881H25.7118C23.6188 87.0881 21.6 87.9193 20.1156 89.4037C18.6313 90.8881 17.8 92.8919 17.8 94.9998V95.0147C17.8 97.1151 18.6313 99.1264 20.1156 100.611C21.6 102.095 23.6113 102.926 25.7118 102.926H164.271C166.364 102.926 168.383 102.095 169.867 100.611C171.351 99.1264 172.183 97.1226 172.183 95.0147V94.9998C172.183 92.8994 171.351 90.8881 169.867 89.4037C168.383 87.9193 166.371 87.0881 164.271 87.0881Z" fill="#EDE5CC"/>
<path fill-rule="evenodd" clip-rule="evenodd" d="M164.271 130.625C169.518 130.625 174.55 132.711 178.261 136.421C181.972 140.132 184.057 145.164 184.057 150.412V150.426C184.057 155.666 181.972 160.706 178.261 164.417C174.55 168.127 169.518 170.213 164.271 170.213H25.7118C20.4644 170.213 15.4325 168.127 11.7216 164.417C8.01074 160.706 5.92517 155.674 5.92517 150.426V150.412C5.92517 145.164 8.01074 140.132 11.7216 136.421C15.4325 132.711 20.4646 130.625 25.7118 130.625H164.271ZM164.271 142.5H25.7118C23.6188 142.5 21.6 143.331 20.1156 144.816C18.6313 146.3 17.8 148.311 17.8 150.412V150.427C17.8 152.52 18.6313 154.538 20.1156 156.023C21.6 157.5 23.6113 158.338 25.7118 158.338H164.271C166.364 158.338 168.383 157.5 169.867 156.023C171.351 154.538 172.183 152.527 172.183 150.427V150.412C172.183 148.319 171.351 146.3 169.867 144.816C168.383 143.331 166.371 142.5 164.271 142.5Z" fill="#EDE5CC"/>
</svg>
